<svg version="1.1" xmlns="http://www.w3.org/2000/svg" xmlns:xlink="http://www.w3.org/1999/xlink" width="576px" height="512px" viewBox="0,0,256,227.55469"><g fill="#fcc419" fill-rule="nonzero" stroke="none" stroke-width="1" stroke-linecap="butt" stroke-linejoin="miter" stroke-miterlimit="10" stroke-dasharray="" stroke-dashoffset="0" font-family="none" font-weight="none" font-size="none" text-anchor="none" style="mix-blend-mode: normal"><g transform="translate(-0.07637,-0.01317) scale(0.44444,0.44444)"><path d="M316.9,18c-5.3,-11 -16.5,-18 -28.8,-18c-12.3,0 -23.4,7 -28.8,18l-64.3,132.3l-143.6,21.2c-12,1.8 -22,10.2 -25.7,21.7c-3.7,11.5 -0.7,24.2 7.9,32.7l104.2,103.1l-24.6,145.7c-2,12 3,24.2 12.9,31.3c9.9,7.1 23,8 33.8,2.3l128.3,-68.5l128.3,68.5c10.8,5.7 23.9,4.9 33.8,-2.3c9.9,-7.2 14.9,-19.3 12.9,-31.3l-24.7,-145.7l104.2,-103.1c8.6,-8.5 11.7,-21.2 7.9,-32.7c-3.8,-11.5 -13.7,-19.9 -25.7,-21.7l-143.7,-21.2z"></path></g></g></svg>